<?xml version="1.0" encoding="UTF-8" standalone="no"?>
<!DOCTYPE svg PUBLIC "-//W3C//DTD SVG 1.1//EN" "http://www.w3.org/Graphics/SVG/1.1/DTD/svg11.dtd">
<!-- Created with Vectornator (http://vectornator.io/) -->
<svg height="100%" stroke-miterlimit="10" style="fill-rule:nonzero;clip-rule:evenodd;stroke-linecap:round;stroke-linejoin:round;" version="1.1" viewBox="0 0 1024 1024" width="100%" xml:space="preserve" xmlns="http://www.w3.org/2000/svg" xmlns:vectornator="http://vectornator.io" xmlns:xlink="http://www.w3.org/1999/xlink">
<defs/>
<g id="Layer-1" vectornator:layerName="Layer 1">
<g opacity="1" vectornator:layerName="noun-skull-3553831.svg">
<path d="M387.74 303.658C387.74 284.886 403.987 269.668 424.027 269.668C444.068 269.668 460.314 284.886 460.314 303.658C460.314 322.43 444.068 337.648 424.027 337.648C403.987 337.648 387.74 322.43 387.74 303.658Z" fill="#c2e5a2" fill-rule="nonzero" opacity="1" stroke="none" vectornator:layerName="circle"/>
<path d="M563.99 303.658C563.99 284.886 580.236 269.668 600.276 269.668C620.317 269.668 636.563 284.886 636.563 303.658C636.563 322.43 620.317 337.648 600.276 337.648C580.236 337.648 563.99 322.43 563.99 303.658Z" fill="#c2e5a2" fill-rule="nonzero" opacity="1" stroke="none" vectornator:layerName="circle"/>
<path d="M325.535 489.275C324.498 542.688 370.116 587.36 427.137 588.331C428.174 588.331 428.174 588.331 429.211 588.331C443.726 588.331 457.203 585.418 470.681 580.562C497.637 591.245 526.666 591.245 553.622 580.562C567.1 585.418 580.578 588.331 595.093 588.331C652.114 588.331 698.769 544.63 698.769 491.217C698.769 490.246 698.769 490.246 698.769 489.275L698.769 478.592C751.643 431.006 781.71 365.94 781.71 296.988C781.71 157.144 661.445 44.491 512.152 44.491C501.784 44.491 491.417 45.4621 481.049 46.4333C359.748 60.0293 262.292 148.403 244.667 262.027C233.263 341.661 263.329 422.266 325.535 478.592L325.535 489.275ZM306.873 269.796C320.351 182.393 394.998 114.413 488.306 103.731C495.564 102.76 503.858 102.76 512.152 102.76C626.195 102.76 719.504 189.191 719.504 296.017C719.504 357.199 689.438 414.497 636.563 451.4L636.563 489.275C637.6 510.64 619.975 529.092 597.166 530.063C596.129 530.063 595.093 530.063 595.093 530.063C580.578 530.063 568.137 523.265 560.879 512.582C559.843 510.64 556.732 508.698 553.622 508.698C550.512 508.698 548.438 509.669 546.365 512.582C533.924 531.034 508.005 535.89 489.343 524.236C484.159 521.323 480.012 517.438 476.902 512.582C475.865 510.64 472.755 508.698 469.645 508.698C466.534 508.698 464.461 509.669 462.387 512.582C455.13 523.265 441.652 530.063 428.174 530.063C405.365 530.063 386.704 512.582 386.704 491.217C386.704 490.246 386.704 490.246 386.704 489.275L386.704 451.4C327.608 409.641 296.505 339.719 306.873 269.796Z" fill="#c2e5a2" fill-rule="nonzero" opacity="1" stroke="none" vectornator:layerName="path"/>
</g>
</g>
<g id="Layer-3" vectornator:layerName="Layer 3">
<path d="M354.393 908.239C343.417 908.292 334.01 915.873 331.933 926.34C329.856 936.808 335.688 947.241 345.857 951.252C356.027 955.262 367.698 951.731 373.723 942.821C379.748 933.911 378.446 922.107 370.615 914.637C366.3 910.494 360.462 908.191 354.393 908.239Z" fill="#c2e5a2" fill-rule="nonzero" opacity="1" stroke="none" vectornator:layerName="path"/>
<path d="M413.898 721.271L414.527 721.489L415.291 721.75C415.58 721.895 415.851 722.07 416.1 722.272C416.259 722.343 416.41 722.431 416.55 722.533L473.174 777.414L505.755 745.861L449.176 691.067L448.906 690.632C448.677 690.406 448.494 690.14 448.367 689.849C448.238 689.602 448.147 689.338 448.097 689.065C448.097 689.065 448.097 688.717 447.872 688.5L438.885 617.908L359.521 588.574L346.039 601.283L405.405 658.774C406.301 659.602 406.805 660.752 406.798 661.951C406.793 663.136 406.29 664.268 405.405 665.085L389.766 680.23C388.918 681.081 387.75 681.562 386.53 681.562C385.309 681.562 384.141 681.081 383.294 680.23L324.019 622.782L310.807 635.577L341.006 712.697L413.898 721.271Z" fill="#c2e5a2" fill-rule="nonzero" opacity="1" stroke="none" vectornator:layerName="path"/>
<path d="M409.855 910.692C409.833 910.388 409.833 910.083 409.855 909.778C409.835 909.518 409.835 909.256 409.855 908.995C409.898 908.721 409.989 908.456 410.124 908.212C410.252 907.944 410.418 907.695 410.617 907.472C410.712 907.306 410.817 907.146 410.931 906.993L607.794 715.934L608.242 715.629L609.004 715.15L609.855 714.846L610.393 714.846L683.079 706.141L713.193 629.021L700.063 616.139L640.955 673.544C640.111 674.395 638.946 674.876 637.729 674.876C636.512 674.876 635.347 674.395 634.502 673.544L618.907 658.398C618.024 657.581 617.523 656.449 617.518 655.265C617.51 654.065 618.013 652.916 618.907 652.088L678.105 594.639L664.661 581.931L585.432 611.178L576.604 681.682C576.604 681.682 576.604 681.987 576.604 682.161C576.526 682.46 576.421 682.751 576.29 683.032C576.152 683.294 575.987 683.542 575.797 683.771C575.797 683.771 575.797 684.076 575.484 684.207L378.621 875.396L378.083 875.701L377.411 876.18C377.125 876.305 376.824 876.393 376.515 876.441L375.753 876.441L375.439 876.441L374.812 876.441L374.274 876.441C352.201 870.748 328.942 880.15 317.546 899.37C306.149 918.59 309.452 942.846 325.6 958.529C341.748 974.212 366.724 977.42 386.515 966.351C406.305 955.283 415.985 932.694 410.124 911.258C410.124 911.258 409.9 910.866 409.855 910.692ZM383.819 945.988C371.271 958.175 350.927 958.175 338.379 945.988C325.788 933.794 325.769 913.993 338.337 901.776C350.905 889.559 371.293 889.559 383.861 901.776C396.429 913.993 396.41 933.794 383.819 945.988Z" fill="#c2e5a2" fill-rule="nonzero" opacity="1" stroke="none" vectornator:layerName="path"/>
<path d="M692.417 895.879C679.657 883.509 661.083 878.668 643.66 883.171L643.033 883.171L642.495 883.171L642.226 883.171L641.33 883.171C641.067 883.109 640.812 883.022 640.568 882.91L639.806 882.431C639.648 882.32 639.484 882.218 639.313 882.126L544.489 789.992L512 821.545L606.734 913.549C606.84 913.684 606.93 913.83 607.003 913.984C607.211 914.226 607.391 914.488 607.541 914.768C607.643 914.995 607.732 915.228 607.81 915.464C607.831 915.768 607.831 916.074 607.81 916.378C607.81 916.639 607.81 916.9 607.81 917.161C607.81 917.422 607.81 917.553 607.81 917.771C601.477 940.744 613.026 964.82 635.211 974.89C657.396 984.961 683.823 978.123 697.909 958.668C711.995 939.213 709.68 912.748 692.417 895.879ZM679.466 952.457C666.911 964.626 646.579 964.612 634.041 952.428C621.503 940.243 621.503 920.497 634.041 908.312C646.579 896.128 666.911 896.114 679.466 908.283C685.594 914.126 689.046 922.116 689.046 930.457C689.046 938.798 685.594 946.788 679.466 952.631L679.466 952.457Z" fill="#c2e5a2" fill-rule="nonzero" opacity="1" stroke="none" vectornator:layerName="path"/>
<path d="M656.701 908.239C645.75 908.3 636.369 915.869 634.301 926.314C632.233 936.758 638.053 947.166 648.2 951.168C658.347 955.169 669.991 951.649 676.006 942.761C682.021 933.873 680.73 922.096 672.923 914.637C668.604 910.498 662.768 908.196 656.701 908.239Z" fill="#c2e5a2" fill-rule="nonzero" opacity="1" stroke="none" vectornator:layerName="path"/>
</g>
</svg>
